<svg width="68" height="68" viewBox="0 0 68 68" fill="none" xmlns="http://www.w3.org/2000/svg">
<path d="M53.2685 53.295H53.2951H53.2685ZM53.2685 53.295C51.5218 55.0271 48.3563 54.5957 46.1365 54.5957C43.4117 54.5957 42.0995 55.1286 40.1548 57.0733C38.499 58.7294 36.2791 61.71 33.6601 61.71C31.0411 61.71 28.8212 58.7294 27.1653 57.0733C25.2206 55.1286 23.9085 54.5957 21.1836 54.5957C18.9638 54.5957 15.7984 55.0271 14.0517 53.295C12.2911 51.5492 12.7244 48.3705 12.7244 46.1364C12.7244 43.3131 12.1069 42.015 10.0964 40.0043C7.10557 37.0137 5.61016 35.518 5.61011 33.66C5.61014 31.8017 7.10551 30.3063 10.0963 27.3156C11.8911 25.5208 12.7244 23.7423 12.7244 21.1835C12.7244 18.9636 12.293 15.7982 14.0251 14.0515C15.771 12.2909 18.9496 12.7242 21.1837 12.7242C23.7424 12.7242 25.5209 11.891 27.3156 10.0962C30.3064 7.1054 31.8018 5.61 33.6601 5.61C35.5184 5.61 37.0138 7.1054 40.0045 10.0962C41.7988 11.8906 43.5772 12.7242 46.1365 12.7242C48.3563 12.7242 51.5221 12.2928 53.2687 14.025C55.0292 15.7709 54.5958 18.9494 54.5958 21.1835C54.5958 24.0068 55.2134 25.3049 57.2238 27.3156C60.2148 30.3063 61.7101 31.8017 61.7101 33.66C61.7101 35.518 60.2148 37.0137 57.2238 40.0043C55.2132 42.015 54.5958 43.3131 54.5958 46.1364C54.5958 48.3705 55.0292 51.5492 53.2685 53.295Z" fill="#007BFF"/>
<path d="M53.2685 53.295H53.2951M53.2685 53.295C51.5218 55.0271 48.3563 54.5957 46.1365 54.5957C43.4117 54.5957 42.0995 55.1286 40.1548 57.0733C38.499 58.7294 36.2791 61.71 33.6601 61.71C31.0411 61.71 28.8212 58.7294 27.1653 57.0733C25.2206 55.1286 23.9085 54.5957 21.1836 54.5957C18.9638 54.5957 15.7984 55.0271 14.0517 53.295C12.2911 51.5492 12.7244 48.3705 12.7244 46.1364C12.7244 43.3131 12.1069 42.015 10.0964 40.0043C7.10557 37.0137 5.61016 35.518 5.61011 33.66C5.61014 31.8017 7.10551 30.3063 10.0963 27.3156C11.8911 25.5208 12.7244 23.7423 12.7244 21.1835C12.7244 18.9636 12.293 15.7982 14.0251 14.0515C15.771 12.2909 18.9496 12.7242 21.1837 12.7242C23.7424 12.7242 25.5209 11.891 27.3156 10.0962C30.3064 7.1054 31.8018 5.61 33.6601 5.61C35.5184 5.61 37.0138 7.1054 40.0045 10.0962C41.7988 11.8906 43.5772 12.7242 46.1365 12.7242C48.3563 12.7242 51.5221 12.2928 53.2687 14.025C55.0292 15.7709 54.5958 18.9494 54.5958 21.1835C54.5958 24.0068 55.2134 25.3049 57.2238 27.3156C60.2148 30.3063 61.7101 31.8017 61.7101 33.66C61.7101 35.518 60.2148 37.0137 57.2238 40.0043C55.2132 42.015 54.5958 43.3131 54.5958 46.1364C54.5958 48.3705 55.0292 51.5492 53.2685 53.295Z" stroke="#007BFF" stroke-width="4.2075"/>
<path d="M24.194 24.1931C23.6131 24.1931 23.1421 24.6641 23.1421 25.245V41.0231C23.1421 41.6041 23.6131 42.075 24.194 42.075H25.2459V44.1788H27.3496V42.075H39.9721V44.1788H42.0759V42.075H43.1277C43.7087 42.075 44.1796 41.6041 44.1796 41.0231V25.245C44.1796 24.6641 43.7087 24.1931 43.1277 24.1931H24.194ZM37.1838 29.7012L38.5857 28.2993L40.0733 29.7869L38.6714 31.1888C39.3538 32.3914 39.3538 33.8764 38.6714 35.0791L40.0733 36.4809L38.5857 37.9685L37.1838 36.5667C35.9811 37.249 34.4963 37.249 33.2936 36.5667L31.8916 37.9685L30.4041 36.4809L31.806 35.0791C31.1235 33.8764 31.1235 32.3914 31.806 31.1888L30.4041 29.7869L31.8916 28.2993L33.2936 29.7012C34.4963 29.0188 35.9811 29.0188 37.1838 29.7012ZM36.5403 31.8323C35.8214 31.1134 34.6559 31.1134 33.9371 31.8323C33.2181 32.5511 33.2181 33.7167 33.9371 34.4356C34.6559 35.1544 35.8214 35.1544 36.5403 34.4356C37.2592 33.7167 37.2592 32.5511 36.5403 31.8323ZM26.2977 29.4525H28.4015V36.8156H26.2977V29.4525Z" fill="white"/>
</svg>
