<svg width="68" height="68" viewBox="0 0 68 68" fill="none" xmlns="http://www.w3.org/2000/svg">
<path d="M53.268 53.295H53.2946H53.268ZM53.268 53.295C51.5213 55.0271 48.3559 54.5957 46.136 54.5957C43.4112 54.5957 42.099 55.1287 40.1543 57.0734C38.4985 58.7295 36.2786 61.71 33.6596 61.71C31.0406 61.71 28.8207 58.7295 27.1648 57.0734C25.2202 55.1287 23.908 54.5957 21.1831 54.5957C18.9633 54.5957 15.7979 55.0271 14.0512 53.295C12.2906 51.5492 12.7239 48.3706 12.7239 46.1364C12.7239 43.3132 12.1064 42.015 10.0959 40.0044C7.10508 37.0137 5.60968 35.5181 5.60962 33.66C5.60965 31.8017 7.10502 30.3064 10.0958 27.3156C11.8906 25.5208 12.7239 23.7424 12.7239 21.1836C12.7239 18.9637 12.2925 15.7982 14.0246 14.0515C15.7705 12.2909 18.9491 12.7243 21.1832 12.7243C23.7419 12.7243 25.5204 11.891 27.3151 10.0963C30.306 7.10545 31.8013 5.61005 33.6596 5.61005C35.5179 5.61005 37.0133 7.10545 40.004 10.0963C41.7983 11.8906 43.5767 12.7243 46.136 12.7243C48.3559 12.7243 51.5216 12.2929 53.2683 14.025C55.0287 15.771 54.5953 18.9495 54.5953 21.1836C54.5953 24.0069 55.213 25.305 57.2233 27.3156C60.2143 30.3064 61.7096 31.8017 61.7096 33.66C61.7096 35.5181 60.2143 37.0137 57.2233 40.0044C55.2127 42.015 54.5953 43.3132 54.5953 46.1364C54.5953 48.3706 55.0287 51.5492 53.268 53.295Z" fill="#FFD700"/>
<path d="M53.268 53.295H53.2946M53.268 53.295C51.5213 55.0271 48.3559 54.5957 46.136 54.5957C43.4112 54.5957 42.099 55.1287 40.1543 57.0734C38.4985 58.7295 36.2786 61.71 33.6596 61.71C31.0406 61.71 28.8207 58.7295 27.1648 57.0734C25.2202 55.1287 23.908 54.5957 21.1831 54.5957C18.9633 54.5957 15.7979 55.0271 14.0512 53.295C12.2906 51.5492 12.7239 48.3706 12.7239 46.1364C12.7239 43.3132 12.1064 42.015 10.0959 40.0044C7.10508 37.0137 5.60968 35.5181 5.60962 33.66C5.60965 31.8017 7.10502 30.3064 10.0958 27.3156C11.8906 25.5208 12.7239 23.7424 12.7239 21.1836C12.7239 18.9637 12.2925 15.7982 14.0246 14.0515C15.7705 12.2909 18.9491 12.7243 21.1832 12.7243C23.7419 12.7243 25.5204 11.891 27.3151 10.0963C30.306 7.10545 31.8013 5.61005 33.6596 5.61005C35.5179 5.61005 37.0133 7.10545 40.004 10.0963C41.7983 11.8906 43.5767 12.7243 46.136 12.7243C48.3559 12.7243 51.5216 12.2929 53.2683 14.025C55.0287 15.771 54.5953 18.9495 54.5953 21.1836C54.5953 24.0069 55.213 25.305 57.2233 27.3156C60.2143 30.3064 61.7096 31.8017 61.7096 33.66C61.7096 35.5181 60.2143 37.0137 57.2233 40.0044C55.2127 42.015 54.5953 43.3132 54.5953 46.1364C54.5953 48.3706 55.0287 51.5492 53.268 53.295Z" stroke="#FFD703" stroke-width="4.2075"/>
<path d="M33.6599 21.3882C40.4374 21.3882 45.9317 26.8825 45.9317 33.66C45.9317 40.4375 40.4374 45.9319 33.6599 45.9319C26.8823 45.9319 21.388 40.4375 21.388 33.66C21.388 26.8825 26.8823 21.3882 33.6599 21.3882ZM38.5739 34.7371C38.15 34.0936 37.8442 33.6289 36.6815 33.8132C34.4842 34.1619 34.2406 34.5465 34.1357 35.1787L34.1061 35.3711L34.0763 35.5741C33.9564 36.4124 33.9609 36.7295 34.3457 37.1339C35.8984 38.7629 36.8285 39.9371 37.1102 40.6238C37.2478 40.9598 37.6015 41.9743 37.3581 42.9777C38.8597 42.3812 40.1831 41.4321 41.2259 40.2327C41.3611 39.774 41.4588 39.2027 41.4588 38.5096V38.3813C41.4588 37.2492 41.4588 36.7329 40.6586 36.2757C40.321 36.0838 40.0691 35.9684 39.8672 35.8768C39.4166 35.6719 39.1183 35.5373 38.7156 34.9485C38.6677 34.8784 38.6208 34.8084 38.5739 34.7371ZM33.6599 23.638C30.816 23.638 28.2487 24.8225 26.4246 26.7251C26.6418 26.876 26.831 27.0879 26.961 27.38C27.2114 27.9417 27.2114 28.5196 27.2114 29.0306C27.2109 29.4339 27.2103 29.8155 27.3398 30.0926C27.5171 30.471 28.2804 30.6317 28.9542 30.7729C29.1949 30.8236 29.4432 30.8753 29.669 30.9378C30.2901 31.1103 30.7705 31.6677 31.1557 32.1152C31.3155 32.3017 31.5514 32.5756 31.6697 32.6435C31.7315 32.5992 31.9295 32.3847 32.0276 32.0322C32.1022 31.7637 32.081 31.5244 31.9711 31.395C31.285 30.5852 31.3223 29.0252 31.5344 28.4506C31.8684 27.5438 32.9119 27.6107 33.6746 27.6603C33.9591 27.6786 34.2276 27.6962 34.4277 27.6711C35.1916 27.5752 35.4265 26.414 35.5927 26.1865C35.9512 25.6953 37.0478 24.9557 37.729 24.4985C36.4855 23.9454 35.1086 23.638 33.6599 23.638Z" fill="white"/>
</svg>
