<svg width="68" height="68" viewBox="0 0 68 68" fill="none" xmlns="http://www.w3.org/2000/svg">
<path d="M53.2686 53.295H53.2953H53.2686ZM53.2686 53.295C51.522 55.0271 48.3565 54.5957 46.1367 54.5957C43.4119 54.5957 42.0997 55.1286 40.155 57.0733C38.4992 58.7294 36.2793 61.71 33.6603 61.71C31.0413 61.71 28.8214 58.7294 27.1655 57.0733C25.2208 55.1286 23.9087 54.5957 21.1838 54.5957C18.964 54.5957 15.7986 55.0271 14.0519 53.295C12.2913 51.5492 12.7246 48.3705 12.7246 46.1363C12.7246 43.3131 12.1071 42.015 10.0966 40.0043C7.10575 37.0136 5.61035 35.518 5.61029 33.66C5.61032 31.8017 7.10569 30.3063 10.0965 27.3156C11.8912 25.5208 12.7246 23.7423 12.7246 21.1835C12.7246 18.9636 12.2932 15.7981 14.0253 14.0515C15.7712 12.2909 18.9497 12.7242 21.1839 12.7242C23.7426 12.7242 25.5211 11.8909 27.3158 10.0962C30.3066 7.10539 31.802 5.60999 33.6603 5.60999C35.5186 5.60999 37.0139 7.10539 40.0046 10.0962C41.799 11.8906 43.5774 12.7242 46.1367 12.7242C48.3565 12.7242 51.5223 12.2928 53.2689 14.025C55.0293 15.7709 54.596 18.9494 54.596 21.1835C54.596 24.0068 55.2136 25.3049 57.224 27.3156C60.2149 30.3063 61.7103 31.8017 61.7103 33.66C61.7103 35.518 60.2149 37.0136 57.224 40.0043C55.2134 42.015 54.596 43.3131 54.596 46.1363C54.596 48.3705 55.0293 51.5492 53.2686 53.295Z" fill="#18CB30"/>
<path d="M53.2686 53.295H53.2953M53.2686 53.295C51.522 55.0271 48.3565 54.5957 46.1367 54.5957C43.4119 54.5957 42.0997 55.1286 40.155 57.0733C38.4992 58.7294 36.2793 61.71 33.6603 61.71C31.0413 61.71 28.8214 58.7294 27.1655 57.0733C25.2208 55.1286 23.9087 54.5957 21.1838 54.5957C18.964 54.5957 15.7986 55.0271 14.0519 53.295C12.2913 51.5492 12.7246 48.3705 12.7246 46.1363C12.7246 43.3131 12.1071 42.015 10.0966 40.0043C7.10575 37.0136 5.61035 35.518 5.61029 33.66C5.61032 31.8017 7.10569 30.3063 10.0965 27.3156C11.8912 25.5208 12.7246 23.7423 12.7246 21.1835C12.7246 18.9636 12.2932 15.7981 14.0253 14.0515C15.7712 12.2909 18.9497 12.7242 21.1839 12.7242C23.7426 12.7242 25.5211 11.8909 27.3158 10.0962C30.3066 7.10539 31.802 5.60999 33.6603 5.60999C35.5186 5.60999 37.0139 7.10539 40.0046 10.0962C41.799 11.8906 43.5774 12.7242 46.1367 12.7242C48.3565 12.7242 51.5223 12.2928 53.2689 14.025C55.0293 15.7709 54.596 18.9494 54.596 21.1835C54.596 24.0068 55.2136 25.3049 57.224 27.3156C60.2149 30.3063 61.7103 31.8017 61.7103 33.66C61.7103 35.518 60.2149 37.0136 57.224 40.0043C55.2134 42.015 54.596 43.3131 54.596 46.1363C54.596 48.3705 55.0293 51.5492 53.2686 53.295Z" stroke="#18CB30" stroke-width="4.2075"/>
<path d="M22.0893 33.66C22.0893 31.1749 24.1038 29.1603 26.5889 29.1603C28.1362 29.1603 29.1854 29.718 30.059 30.5917C30.9929 31.5255 31.7123 32.8014 32.536 34.2843L32.5793 34.3622C33.352 35.7534 34.2295 37.3334 35.4425 38.5465C36.7384 39.8423 38.4212 40.7309 40.7308 40.7309C44.636 40.7309 47.8018 37.5652 47.8018 33.66C47.8018 29.7548 44.636 26.5891 40.7308 26.5891C38.5959 26.5891 36.6821 27.5351 35.3856 29.0309C35.9595 29.8726 36.4335 30.7105 36.8277 31.4197C37.6043 30.0695 39.0613 29.1603 40.7308 29.1603C43.2159 29.1603 45.2305 31.1749 45.2305 33.66C45.2305 36.1451 43.2159 38.1597 40.7308 38.1597C39.1836 38.1597 38.1344 37.602 37.2608 36.7283C36.3269 35.7945 35.6075 34.5185 34.7838 33.0357L34.7404 32.9578C33.9678 31.5666 33.0902 29.9865 31.8772 28.7735C30.5813 27.4777 28.8986 26.5891 26.5889 26.5891C22.6838 26.5891 19.518 29.7548 19.518 33.66C19.518 37.5652 22.6838 40.7309 26.5889 40.7309C28.7238 40.7309 30.6377 39.7848 31.9342 38.289C31.3603 37.4473 30.8863 36.6095 30.4922 35.9003C29.7155 37.2505 28.2584 38.1597 26.5889 38.1597C24.1038 38.1597 22.0893 36.1451 22.0893 33.66Z" fill="white"/>
</svg>
